<svg width="44" height="44" viewBox="0 0 44 44" fill="none" xmlns="http://www.w3.org/2000/svg">
<g filter="url(#filter0_d_338_528)">
<g filter="url(#filter1_d_338_528)">
<circle cx="22" cy="18" r="18" fill="white"/>
</g>
<path d="M21.9998 28C22.5302 28 23.0389 27.7893 23.414 27.4142C23.7891 27.0391 23.9998 26.5304 23.9998 26H19.9998C19.9998 26.5304 20.2105 27.0391 20.5856 27.4142C20.9606 27.7893 21.4694 28 21.9998 28ZM13.9998 24H29.9998C30.1975 24 30.3908 23.9413 30.5552 23.8314C30.7197 23.7215 30.8478 23.5654 30.9235 23.3827C30.9991 23.2 31.0189 22.9989 30.9804 22.805C30.9418 22.611 30.8466 22.4329 30.7068 22.293L28.9998 20.586V15C28.9966 13.3185 28.3887 11.6942 27.2871 10.4238C26.1856 9.15334 24.6639 8.32145 22.9998 8.08V7C22.9998 6.73478 22.8944 6.48043 22.7069 6.29289C22.5194 6.10536 22.265 6 21.9998 6C21.7346 6 21.4802 6.10536 21.2927 6.29289C21.1051 6.48043 20.9998 6.73478 20.9998 7V8.08C19.3357 8.32145 17.814 9.15334 16.7124 10.4238C15.6109 11.6942 15.003 13.3185 14.9998 15V20.586L13.2928 22.293C13.153 22.4329 13.0578 22.611 13.0192 22.805C12.9806 22.9989 13.0004 23.2 13.0761 23.3827C13.1518 23.5654 13.2799 23.7215 13.4443 23.8314C13.6087 23.9413 13.802 24 13.9998 24ZM16.7068 21.707C16.8943 21.5195 16.9997 21.2652 16.9998 21V15C16.9998 13.6739 17.5266 12.4021 18.4643 11.4645C19.4019 10.5268 20.6737 10 21.9998 10C23.3259 10 24.5976 10.5268 25.5353 11.4645C26.473 12.4021 26.9998 13.6739 26.9998 15V21C26.9998 21.2652 27.1052 21.5195 27.2928 21.707L27.5858 22H16.4138L16.7068 21.707Z" fill="black"/>
</g>
<defs>
<filter id="filter0_d_338_528" x="0" y="0" width="44" height="44" filterUnits="userSpaceOnUse" color-interpolation-filters="sRGB">
<feFlood flood-opacity="0" result="BackgroundImageFix"/>
<feColorMatrix in="SourceAlpha" type="matrix" values="0 0 0 0 0 0 0 0 0 0 0 0 0 0 0 0 0 0 127 0" result="hardAlpha"/>
<feOffset dy="4"/>
<feGaussianBlur stdDeviation="2"/>
<feComposite in2="hardAlpha" operator="out"/>
<feColorMatrix type="matrix" values="0 0 0 0 0 0 0 0 0 0 0 0 0 0 0 0 0 0 0.25 0"/>
<feBlend mode="normal" in2="BackgroundImageFix" result="effect1_dropShadow_338_528"/>
<feBlend mode="normal" in="SourceGraphic" in2="effect1_dropShadow_338_528" result="shape"/>
</filter>
<filter id="filter1_d_338_528" x="0" y="0" width="44" height="44" filterUnits="userSpaceOnUse" color-interpolation-filters="sRGB">
<feFlood flood-opacity="0" result="BackgroundImageFix"/>
<feColorMatrix in="SourceAlpha" type="matrix" values="0 0 0 0 0 0 0 0 0 0 0 0 0 0 0 0 0 0 127 0" result="hardAlpha"/>
<feOffset dy="4"/>
<feGaussianBlur stdDeviation="2"/>
<feComposite in2="hardAlpha" operator="out"/>
<feColorMatrix type="matrix" values="0 0 0 0 0 0 0 0 0 0 0 0 0 0 0 0 0 0 0.25 0"/>
<feBlend mode="normal" in2="BackgroundImageFix" result="effect1_dropShadow_338_528"/>
<feBlend mode="normal" in="SourceGraphic" in2="effect1_dropShadow_338_528" result="shape"/>
</filter>
</defs>
</svg>
