<svg width="383" height="63" viewBox="0 0 383 63" fill="none" xmlns="http://www.w3.org/2000/svg">
<g filter="url(#filter0_d_338_541)">
<circle cx="351.5" cy="27.5" r="19.5" fill="#26B679"/>
</g>
<g filter="url(#filter1_d_338_541)">
<rect x="12" y="8" width="313" height="39" rx="19.5" fill="white"/>
</g>
<path d="M344.865 29.4239L350.466 28.1983C350.966 28.089 350.966 27.911 350.466 27.8017L344.865 26.5761C344.531 26.5032 344.206 26.1474 344.14 25.7827L343.02 19.6549C342.919 19.1074 343.214 18.853 343.678 19.087L360.768 27.7174C361.077 27.8733 361.077 28.1267 360.768 28.2826L343.678 36.913C343.214 37.147 342.919 36.8926 343.02 36.3451L344.14 30.2173C344.206 29.8526 344.531 29.4968 344.865 29.4239Z" fill="white"/>
<defs>
<filter id="filter0_d_338_541" x="320" y="0" width="63" height="63" filterUnits="userSpaceOnUse" color-interpolation-filters="sRGB">
<feFlood flood-opacity="0" result="BackgroundImageFix"/>
<feColorMatrix in="SourceAlpha" type="matrix" values="0 0 0 0 0 0 0 0 0 0 0 0 0 0 0 0 0 0 127 0" result="hardAlpha"/>
<feOffset dy="4"/>
<feGaussianBlur stdDeviation="6"/>
<feComposite in2="hardAlpha" operator="out"/>
<feColorMatrix type="matrix" values="0 0 0 0 0 0 0 0 0 0 0 0 0 0 0 0 0 0 0.25 0"/>
<feBlend mode="normal" in2="BackgroundImageFix" result="effect1_dropShadow_338_541"/>
<feBlend mode="normal" in="SourceGraphic" in2="effect1_dropShadow_338_541" result="shape"/>
</filter>
<filter id="filter1_d_338_541" x="0" y="0" width="337" height="63" filterUnits="userSpaceOnUse" color-interpolation-filters="sRGB">
<feFlood flood-opacity="0" result="BackgroundImageFix"/>
<feColorMatrix in="SourceAlpha" type="matrix" values="0 0 0 0 0 0 0 0 0 0 0 0 0 0 0 0 0 0 127 0" result="hardAlpha"/>
<feOffset dy="4"/>
<feGaussianBlur stdDeviation="6"/>
<feComposite in2="hardAlpha" operator="out"/>
<feColorMatrix type="matrix" values="0 0 0 0 0 0 0 0 0 0 0 0 0 0 0 0 0 0 0.25 0"/>
<feBlend mode="normal" in2="BackgroundImageFix" result="effect1_dropShadow_338_541"/>
<feBlend mode="normal" in="SourceGraphic" in2="effect1_dropShadow_338_541" result="shape"/>
</filter>
</defs>
</svg>
