<svg width="48" height="44" viewBox="0 0 48 44" fill="none" xmlns="http://www.w3.org/2000/svg">
<ellipse cx="24" cy="22" rx="24" ry="22" transform="matrix(-1 0 0 1 48 0)" fill="#D9D9D9"/>
<path d="M18.4445 14.6667C18.4445 12.1124 21.0279 10.0351 24.2045 10.0351C27.3812 10.0351 29.9645 12.1124 29.9645 14.6667C29.9645 17.221 27.3812 19.2983 24.2045 19.2983C21.0279 19.2983 18.4445 17.221 18.4445 14.6667ZM28.0445 14.6667C28.0445 12.9638 26.3223 11.579 24.2045 11.579C22.0868 11.579 20.3645 12.9638 20.3645 14.6667C20.3645 16.3696 22.0868 17.7544 24.2045 17.7544C26.3223 17.7544 28.0445 16.3696 28.0445 14.6667ZM34.5601 28.6672V30.8772C34.5601 32.154 33.2679 33.193 31.6801 33.193H16.729C15.1412 33.193 13.849 32.154 13.849 30.8772V28.6672C13.849 24.075 18.4945 20.3404 24.2045 20.3404C29.9146 20.3404 34.5601 24.075 34.5601 28.6672ZM24.2045 21.8842C19.5524 21.8842 15.769 24.9264 15.769 28.6672V30.8772C15.769 31.3025 16.1991 31.6491 16.729 31.6491H31.6801C32.21 31.6491 32.6401 31.3025 32.6401 30.8772V28.6672C32.6401 24.9264 28.8567 21.8842 24.2045 21.8842Z" fill="black"/>
</svg>
