<svg width="19" height="19" viewBox="0 0 19 19" fill="none" xmlns="http://www.w3.org/2000/svg">
<g clip-path="url(#clip0_232_293)">
<path d="M9.5 19C14.7464 19 19 14.7464 19 9.5C19 4.25362 14.7464 0 9.5 0C4.25362 0 0 4.25362 0 9.5C0 14.7464 4.25362 19 9.5 19ZM10.6875 10.6875C10.6875 11.0024 10.5624 11.3045 10.3397 11.5272C10.117 11.7499 9.81494 11.875 9.5 11.875C9.18506 11.875 8.88301 11.7499 8.66031 11.5272C8.43761 11.3045 8.3125 11.0024 8.3125 10.6875V4.75C8.3125 4.43506 8.43761 4.13301 8.66031 3.91031C8.88301 3.68761 9.18506 3.5625 9.5 3.5625C9.81494 3.5625 10.117 3.68761 10.3397 3.91031C10.5624 4.13301 10.6875 4.43506 10.6875 4.75V10.6875ZM9.5 13.0435C9.65598 13.0435 9.81043 13.0743 9.95453 13.134C10.0986 13.1938 10.2295 13.2813 10.3398 13.3916C10.4501 13.5019 10.5375 13.6329 10.5972 13.777C10.6569 13.9211 10.6875 14.0756 10.6875 14.2316C10.6875 14.3876 10.6567 14.542 10.597 14.6861C10.5372 14.8302 10.4497 14.9611 10.3394 15.0714C10.2291 15.1817 10.0981 15.2691 9.95398 15.3288C9.80985 15.3884 9.65539 15.4191 9.49941 15.4191C9.18438 15.419 8.88229 15.2938 8.65959 15.071C8.43689 14.8482 8.31183 14.546 8.31191 14.231C8.31199 13.916 8.4372 13.6139 8.66001 13.3912C8.88282 13.1685 9.18498 13.0434 9.5 13.0435Z" fill="#EC0000"/>
</g>
<defs>
<clipPath id="clip0_232_293">
<rect width="19" height="19" fill="white"/>
</clipPath>
</defs>
</svg>
