<svg width="35" height="37" viewBox="0 0 35 37" fill="none" xmlns="http://www.w3.org/2000/svg">
<g clip-path="url(#clip0_585_54)">
<path d="M17.5226 0.777779C8.29093 0.777779 0.806152 8.73778 0.806152 18.5556C0.806152 28.3733 8.29093 36.3333 17.5226 36.3333C26.7542 36.3333 34.239 28.3733 34.239 18.5556C34.239 8.73778 26.7542 0.777779 17.5226 0.777779ZM11.2121 10.93C11.4973 10.93 11.7794 11.0811 11.9926 11.3078C12.2057 11.5333 12.4199 11.8356 12.4909 12.3633C12.7741 12.9678 13.0572 13.7222 12.9862 14.4022V14.5533C12.9151 15.0067 12.9151 15.4589 12.6309 15.8367C12.3478 16.2144 11.9215 16.44 11.3542 16.5156V19.99C11.4963 19.99 11.4973 19.99 11.5684 20.0656C11.6394 20.1411 11.7805 20.2933 11.7805 20.52C11.7805 22.03 11.9236 23.84 11.9236 25.4267C11.9236 25.6522 11.7794 25.8044 11.6373 25.9556C11.4831 26.1065 11.2795 26.1874 11.07 26.1811C10.8605 26.1874 10.657 26.1065 10.5027 25.9556C10.3606 25.8044 10.2175 25.5789 10.2175 25.3522C10.2175 23.4644 10.4317 22.18 10.4317 20.4433C10.4317 20.2167 10.5017 20.0656 10.6438 19.99C10.7148 19.99 10.7159 19.9144 10.7869 19.9144V16.4422C10.3088 16.3614 9.87708 16.0916 9.57809 15.6867C9.29496 15.1578 9.15287 14.5533 9.22287 13.9489C9.29496 13.3444 9.50705 12.5911 9.86227 12.0622C10.0754 11.76 10.2185 11.4578 10.4317 11.3067C10.6448 11.0811 10.929 10.9289 11.2132 10.9289L11.2121 10.93ZM24.7033 12.5133C24.8454 12.5133 24.9875 12.6644 25.0585 12.8911V15.9133C25.1237 15.8779 25.1781 15.8237 25.2156 15.7568C25.2531 15.69 25.2722 15.6133 25.2706 15.5356V13.3444C25.2706 13.1933 25.4127 13.0422 25.5538 13.0422C25.6959 13.0422 25.84 13.1933 25.84 13.3444V15.5333C25.84 16.0622 25.4848 16.4389 25.0585 16.59V19.8389C25.1296 19.8389 25.1285 19.8378 25.1996 19.9133C25.2706 20.0644 25.4138 20.2156 25.4138 20.4422C25.4138 21.9533 25.5538 23.7656 25.5538 25.3511C25.5538 25.6533 25.4127 25.8033 25.2706 25.9544C25.2083 26.0281 25.1316 26.0865 25.0459 26.1254C24.9602 26.1644 24.8675 26.183 24.7744 26.18C24.5642 26.1864 24.36 26.1055 24.205 25.9544C24.0639 25.8033 23.9218 25.5778 23.9218 25.3511C23.9218 23.4633 24.065 22.1789 24.065 20.4422C24.065 20.14 24.135 19.9889 24.277 19.9133C24.3481 19.9133 24.3491 19.8389 24.4202 19.8389V16.59C23.9939 16.4389 23.6387 16.0622 23.6387 15.5344V13.3444C23.6387 13.1933 23.7087 13.0422 23.8508 13.0422C24.0639 12.9667 24.206 13.1933 24.206 13.3444V15.4578C24.206 15.6089 24.2781 15.76 24.4202 15.8356V12.8144C24.4202 12.6633 24.4902 12.5878 24.7033 12.5133ZM17.8862 13.7989C20.2285 13.7989 22.1468 15.8378 22.1468 18.2544C22.1468 20.67 20.2285 22.71 17.8862 22.71C15.5427 22.71 13.6266 20.67 13.6266 18.2544C13.6266 15.8378 15.5427 13.7989 17.8862 13.7989ZM17.8862 14.4022C15.8979 14.4022 14.265 16.14 14.1939 18.2544C14.1939 20.3678 15.8969 22.1033 17.8862 22.1033C18.845 22.0992 19.7635 21.6925 20.4417 20.9716C21.12 20.2508 21.5029 19.2742 21.5073 18.2544C21.5032 17.2343 21.1204 16.2572 20.4422 15.5357C19.764 14.8143 18.8454 14.4069 17.8862 14.4022ZM17.8862 15.3089C19.4481 15.3089 20.7259 16.6678 20.7259 18.2533C20.7259 19.84 19.4481 21.1978 17.8862 21.1978C17.1522 21.1966 16.4486 20.886 15.9296 20.3341C15.4107 19.7821 15.1186 19.0339 15.1175 18.2533C15.1186 17.4728 15.4107 16.7245 15.9296 16.1726C16.4486 15.6207 17.1522 15.3101 17.8862 15.3089Z" fill="white"/>
</g>
<defs>
<clipPath id="clip0_585_54">
<rect width="33.4328" height="35.5556" fill="white" transform="translate(0.806152 0.777779)"/>
</clipPath>
</defs>
</svg>
