<svg width="32" height="32" viewBox="0 0 32 32" fill="none" xmlns="http://www.w3.org/2000/svg">
<g clip-path="url(#clip0_30_792)">
<path d="M16 0C7.164 0 0 7.164 0 16C0 24.836 7.164 32 16 32C24.836 32 32 24.836 32 16C32 7.164 24.836 0 16 0ZM9.96 9.137C10.233 9.137 10.503 9.273 10.707 9.477C10.911 9.68 11.116 9.952 11.184 10.427C11.455 10.971 11.726 11.65 11.658 12.262V12.398C11.59 12.806 11.59 13.213 11.318 13.553C11.047 13.893 10.639 14.096 10.096 14.164V17.291C10.232 17.291 10.233 17.291 10.301 17.359C10.369 17.427 10.504 17.564 10.504 17.768C10.504 19.127 10.641 20.756 10.641 22.184C10.641 22.387 10.503 22.524 10.367 22.66C10.2194 22.7958 10.0245 22.8687 9.824 22.863C9.62347 22.8687 9.42865 22.7958 9.281 22.66C9.145 22.524 9.008 22.321 9.008 22.117C9.008 20.418 9.213 19.262 9.213 17.699C9.213 17.495 9.28 17.359 9.416 17.291C9.484 17.291 9.485 17.223 9.553 17.223V14.098C9.09541 14.0253 8.68217 13.7824 8.396 13.418C8.125 12.942 7.989 12.398 8.056 11.854C8.125 11.31 8.328 10.632 8.668 10.156C8.872 9.884 9.009 9.612 9.213 9.476C9.417 9.273 9.689 9.136 9.961 9.136L9.96 9.137ZM22.873 10.562C23.009 10.562 23.145 10.698 23.213 10.902V13.622C23.2753 13.5901 23.3274 13.5413 23.3633 13.4812C23.3992 13.421 23.4175 13.352 23.416 13.282V11.31C23.416 11.174 23.552 11.038 23.687 11.038C23.823 11.038 23.961 11.174 23.961 11.31V13.28C23.961 13.756 23.621 14.095 23.213 14.231V17.155C23.281 17.155 23.28 17.154 23.348 17.222C23.416 17.358 23.553 17.494 23.553 17.698C23.553 19.058 23.687 20.689 23.687 22.116C23.687 22.388 23.552 22.523 23.416 22.659C23.3563 22.7253 23.2829 22.7778 23.2009 22.8129C23.1189 22.8479 23.0302 22.8647 22.941 22.862C22.7399 22.8678 22.5444 22.7949 22.396 22.659C22.261 22.523 22.125 22.32 22.125 22.116C22.125 20.417 22.262 19.261 22.262 17.698C22.262 17.426 22.329 17.29 22.465 17.222C22.533 17.222 22.534 17.155 22.602 17.155V14.231C22.194 14.095 21.854 13.756 21.854 13.281V11.31C21.854 11.174 21.921 11.038 22.057 11.038C22.261 10.97 22.397 11.174 22.397 11.31V13.212C22.397 13.348 22.466 13.484 22.602 13.552V10.833C22.602 10.697 22.669 10.629 22.873 10.562ZM16.348 11.719C18.59 11.719 20.426 13.554 20.426 15.729C20.426 17.903 18.59 19.739 16.348 19.739C14.105 19.739 12.271 17.903 12.271 15.729C12.271 13.554 14.105 11.719 16.348 11.719ZM16.348 12.262C14.445 12.262 12.882 13.826 12.814 15.729C12.814 17.631 14.444 19.193 16.348 19.193C17.2658 19.1893 18.1449 18.8232 18.7941 18.1745C19.4432 17.5257 19.8098 16.6468 19.814 15.729C19.8101 14.8109 19.4437 13.9315 18.7945 13.2822C18.1454 12.6329 17.2661 12.2662 16.348 12.262ZM16.348 13.078C17.843 13.078 19.066 14.301 19.066 15.728C19.066 17.156 17.843 18.378 16.348 18.378C15.6455 18.3769 14.9721 18.0974 14.4753 17.6007C13.9786 17.1039 13.6991 16.4305 13.698 15.728C13.6991 15.0255 13.9786 14.3521 14.4753 13.8553C14.9721 13.3586 15.6455 13.0791 16.348 13.078Z" fill="white"/>
</g>
<defs>
<clipPath id="clip0_30_792">
<rect width="32" height="32" fill="white"/>
</clipPath>
</defs>
</svg>
