<svg width="24" height="19" viewBox="0 0 24 19" fill="none" xmlns="http://www.w3.org/2000/svg">
<g clip-path="url(#clip0_585_248)">
<path d="M9 8.70833C9.79113 8.70833 10.5645 8.52261 11.2223 8.17465C11.8801 7.8267 12.3928 7.33213 12.6955 6.7535C12.9983 6.17487 13.0775 5.53816 12.9231 4.92388C12.7688 4.30961 12.3878 3.74536 11.8284 3.3025C11.269 2.85963 10.5563 2.55803 9.78036 2.43585C9.00444 2.31366 8.20017 2.37637 7.46927 2.61605C6.73836 2.85573 6.11365 3.26161 5.67412 3.78236C5.2346 4.30312 5 4.91536 5 5.54167C5 6.38152 5.42143 7.18697 6.17157 7.78084C6.92172 8.37471 7.93913 8.70833 9 8.70833ZM9 3.95833C9.39556 3.95833 9.78224 4.0512 10.1111 4.22517C10.44 4.39915 10.6964 4.64644 10.8478 4.93575C10.9991 5.22507 11.0387 5.54342 10.9616 5.85056C10.8844 6.1577 10.6939 6.43982 10.4142 6.66125C10.1345 6.88269 9.77814 7.03349 9.39018 7.09458C9.00222 7.15567 8.60009 7.12432 8.23463 7.00448C7.86918 6.88464 7.55682 6.6817 7.33706 6.42132C7.1173 6.16094 7 5.85482 7 5.54167C7 5.12174 7.21071 4.71901 7.58579 4.42208C7.96086 4.12515 8.46957 3.95833 9 3.95833ZM17 10.2917C17.5933 10.2917 18.1734 10.1524 18.6667 9.89141C19.1601 9.63044 19.5446 9.25952 19.7716 8.82554C19.9987 8.39157 20.0581 7.91403 19.9424 7.45333C19.8266 6.99262 19.5409 6.56944 19.1213 6.23729C18.7018 5.90514 18.1672 5.67894 17.5853 5.5873C17.0033 5.49566 16.4001 5.5427 15.8519 5.72245C15.3038 5.90221 14.8352 6.20662 14.5056 6.59719C14.1759 6.98776 14 7.44694 14 7.91667C14 8.54656 14.3161 9.15065 14.8787 9.59605C15.4413 10.0414 16.2044 10.2917 17 10.2917ZM17 7.125C17.1978 7.125 17.3911 7.17143 17.5556 7.25842C17.72 7.34541 17.8482 7.46905 17.9239 7.61371C17.9996 7.75837 18.0194 7.91755 17.9808 8.07112C17.9422 8.22468 17.847 8.36574 17.7071 8.47646C17.5673 8.58718 17.3891 8.66258 17.1951 8.69312C17.0011 8.72367 16.8 8.70799 16.6173 8.64807C16.4346 8.58815 16.2784 8.48668 16.1685 8.35649C16.0586 8.22631 16 8.07325 16 7.91667C16 7.70671 16.1054 7.50534 16.2929 7.35688C16.4804 7.20841 16.7348 7.125 17 7.125ZM17 11.0833C15.8918 11.0843 14.8155 11.3767 13.94 11.9146C12.9605 11.1422 11.7141 10.6167 10.3578 10.4044C9.00159 10.1921 7.59632 10.3025 6.31923 10.7217C5.04213 11.1408 3.95041 11.8499 3.18174 12.7596C2.41307 13.6693 2.00187 14.7389 2 15.8333C2 16.0433 2.10536 16.2447 2.29289 16.3931C2.48043 16.5416 2.73478 16.625 3 16.625C3.26522 16.625 3.51957 16.5416 3.70711 16.3931C3.89464 16.2447 4 16.0433 4 15.8333C4 14.7835 4.52678 13.7767 5.46447 13.0344C6.40215 12.292 7.67392 11.875 9 11.875C10.3261 11.875 11.5979 12.292 12.5355 13.0344C13.4732 13.7767 14 14.7835 14 15.8333C14 16.0433 14.1054 16.2447 14.2929 16.3931C14.4804 16.5416 14.7348 16.625 15 16.625C15.2652 16.625 15.5196 16.5416 15.7071 16.3931C15.8946 16.2447 16 16.0433 16 15.8333C16.0024 14.9058 15.7064 13.9931 15.14 13.1813C15.5819 12.9048 16.1132 12.7324 16.6731 12.6838C17.233 12.6352 17.7989 12.7124 18.306 12.9065C18.813 13.1006 19.2408 13.4038 19.5404 13.7814C19.84 14.159 19.9993 14.5958 20 15.0417C20 15.2516 20.1054 15.453 20.2929 15.6015C20.4804 15.7499 20.7348 15.8333 21 15.8333C21.2652 15.8333 21.5196 15.7499 21.7071 15.6015C21.8946 15.453 22 15.2516 22 15.0417C22 13.9919 21.4732 12.985 20.5355 12.2427C19.5979 11.5004 18.3261 11.0833 17 11.0833Z" fill="black"/>
</g>
<defs>
<clipPath id="clip0_585_248">
<rect width="24" height="19" fill="white"/>
</clipPath>
</defs>
</svg>
