<svg width="20" height="24" viewBox="0 0 20 24" fill="none" xmlns="http://www.w3.org/2000/svg">
<path d="M7.50008 11C8.15935 11 8.80382 10.7654 9.35198 10.3259C9.90015 9.88635 10.3274 9.26164 10.5797 8.53073C10.832 7.79983 10.898 6.99556 10.7694 6.21964C10.6407 5.44371 10.3233 4.73098 9.8571 4.17157C9.39093 3.61216 8.79699 3.2312 8.15038 3.07686C7.50378 2.92252 6.83356 3.00173 6.22447 3.30448C5.61538 3.60723 5.09479 4.11992 4.72852 4.77772C4.36224 5.43552 4.16675 6.20887 4.16675 7C4.16675 8.06087 4.51794 9.07828 5.14306 9.82843C5.76818 10.5786 6.61603 11 7.50008 11ZM7.50008 5C7.82972 5 8.15195 5.1173 8.42603 5.33706C8.70011 5.55682 8.91373 5.86918 9.03988 6.23463C9.16603 6.60009 9.19903 7.00222 9.13472 7.39018C9.07042 7.77814 8.91168 8.13451 8.67859 8.41421C8.4455 8.69392 8.14853 8.8844 7.82523 8.96157C7.50193 9.03874 7.16682 8.99913 6.86228 8.84776C6.55773 8.69638 6.29743 8.44004 6.1143 8.11114C5.93116 7.78224 5.83341 7.39556 5.83341 7C5.83341 6.46957 6.00901 5.96086 6.32157 5.58579C6.63413 5.21071 7.05805 5 7.50008 5ZM14.1667 13C14.6612 13 15.1445 12.8241 15.5557 12.4944C15.9668 12.1648 16.2872 11.6962 16.4764 11.1481C16.6657 10.5999 16.7152 9.99667 16.6187 9.41473C16.5222 8.83279 16.2841 8.29824 15.9345 7.87868C15.5849 7.45912 15.1394 7.1734 14.6545 7.05764C14.1695 6.94189 13.6669 7.0013 13.21 7.22836C12.7532 7.45542 12.3628 7.83994 12.0881 8.33329C11.8134 8.82664 11.6667 9.40666 11.6667 10C11.6667 10.7956 11.9301 11.5587 12.399 12.1213C12.8678 12.6839 13.5037 13 14.1667 13ZM14.1667 9C14.3316 9 14.4927 9.05865 14.6297 9.16853C14.7668 9.27841 14.8736 9.43459 14.9366 9.61732C14.9997 9.80004 15.0162 10.0011 14.9841 10.1951C14.9519 10.3891 14.8725 10.5673 14.756 10.7071C14.6395 10.847 14.491 10.9422 14.3293 10.9808C14.1677 11.0194 14.0001 10.9996 13.8478 10.9239C13.6956 10.8482 13.5654 10.72 13.4739 10.5556C13.3823 10.3911 13.3334 10.1978 13.3334 10C13.3334 9.73478 13.4212 9.48043 13.5775 9.29289C13.7338 9.10536 13.9457 9 14.1667 9ZM14.1667 14C13.2433 14.0012 12.3463 14.3706 11.6167 15.05C10.8005 14.0744 9.76179 13.4106 8.6316 13.1424C7.50141 12.8743 6.33035 13.0137 5.2661 13.5431C4.20186 14.0726 3.29209 14.9683 2.65153 16.1174C2.01097 17.2665 1.66831 18.6175 1.66675 20C1.66675 20.2652 1.75455 20.5196 1.91083 20.7071C2.06711 20.8946 2.27907 21 2.50008 21C2.7211 21 2.93306 20.8946 3.08934 20.7071C3.24562 20.5196 3.33341 20.2652 3.33341 20C3.33341 18.6739 3.7724 17.4021 4.5538 16.4645C5.3352 15.5268 6.39501 15 7.50008 15C8.60515 15 9.66496 15.5268 10.4464 16.4645C11.2278 17.4021 11.6667 18.6739 11.6667 20C11.6667 20.2652 11.7545 20.5196 11.9108 20.7071C12.0671 20.8946 12.2791 21 12.5001 21C12.7211 21 12.9331 20.8946 13.0893 20.7071C13.2456 20.5196 13.3334 20.2652 13.3334 20C13.3354 18.8284 13.0888 17.6755 12.6167 16.65C12.985 16.3008 13.4278 16.083 13.8944 16.0217C14.3609 15.9603 14.8325 16.0578 15.255 16.303C15.6776 16.5482 16.0341 16.9312 16.2838 17.4081C16.5334 17.8851 16.6662 18.4368 16.6667 19C16.6667 19.2652 16.7545 19.5196 16.9108 19.7071C17.0671 19.8946 17.2791 20 17.5001 20C17.7211 20 17.9331 19.8946 18.0893 19.7071C18.2456 19.5196 18.3334 19.2652 18.3334 19C18.3334 17.6739 17.8944 16.4021 17.113 15.4645C16.3316 14.5268 15.2718 14 14.1667 14Z" fill="#17716C"/>
</svg>
