<svg width="25" height="25" viewBox="0 0 25 25" fill="none" xmlns="http://www.w3.org/2000/svg">
<path d="M7.52463 11.2495C7.27775 11.2495 7.03642 11.3228 6.83114 11.4602C6.62587 11.5975 6.46588 11.7927 6.3714 12.0211C6.27693 12.2495 6.25221 12.5008 6.30037 12.7433C6.34854 12.9858 6.46742 13.2085 6.64199 13.3833C6.81656 13.5581 7.03897 13.6771 7.28111 13.7254C7.52324 13.7736 7.77422 13.7489 8.00231 13.6542C8.2304 13.5596 8.42534 13.3994 8.5625 13.1939C8.69966 12.9883 8.77287 12.7467 8.77287 12.4994C8.77287 12.1679 8.64136 11.85 8.40727 11.6156C8.17318 11.3812 7.85568 11.2495 7.52463 11.2495ZM12.5176 11.2495C12.2707 11.2495 12.0294 11.3228 11.8241 11.4602C11.6188 11.5975 11.4588 11.7927 11.3644 12.0211C11.2699 12.2495 11.2452 12.5008 11.2933 12.7433C11.3415 12.9858 11.4604 13.2085 11.635 13.3833C11.8095 13.5581 12.0319 13.6771 12.2741 13.7254C12.5162 13.7736 12.7672 13.7489 12.9953 13.6542C13.2234 13.5596 13.4183 13.3994 13.5555 13.1939C13.6926 12.9883 13.7658 12.7467 13.7658 12.4994C13.7658 12.1679 13.6343 11.85 13.4002 11.6156C13.1661 11.3812 12.8486 11.2495 12.5176 11.2495ZM17.5106 11.2495C17.2637 11.2495 17.0223 11.3228 16.8171 11.4602C16.6118 11.5975 16.4518 11.7927 16.3573 12.0211C16.2629 12.2495 16.2381 12.5008 16.2863 12.7433C16.3345 12.9858 16.4533 13.2085 16.6279 13.3833C16.8025 13.5581 17.0249 13.6771 17.267 13.7254C17.5092 13.7736 17.7601 13.7489 17.9882 13.6542C18.2163 13.5596 18.4113 13.3994 18.5484 13.1939C18.6856 12.9883 18.7588 12.7467 18.7588 12.4994C18.7588 12.1679 18.6273 11.85 18.3932 11.6156C18.1591 11.3812 17.8416 11.2495 17.5106 11.2495ZM12.5176 0C10.8784 0 9.25522 0.323308 7.74078 0.951464C6.22634 1.57962 4.85029 2.50032 3.6912 3.661C1.35029 6.0051 0.0351834 9.18439 0.0351834 12.4994C0.024271 15.3857 1.02228 18.1849 2.85621 20.4116L0.359726 22.9115C0.186523 23.0873 0.0691931 23.3105 0.0225412 23.5529C-0.0241107 23.7954 0.00200579 24.0463 0.0975954 24.2739C0.201272 24.4988 0.369343 24.6878 0.580473 24.8169C0.791604 24.946 1.03627 25.0093 1.28342 24.9989H12.5176C15.8281 24.9989 19.0031 23.682 21.344 21.3379C23.6849 18.9938 25 15.8145 25 12.4994C25 9.18439 23.6849 6.0051 21.344 3.661C19.0031 1.3169 15.8281 0 12.5176 0ZM12.5176 22.499H4.29168L5.45255 21.3366C5.57049 21.2208 5.66432 21.0827 5.7286 20.9304C5.79288 20.7781 5.82633 20.6145 5.82702 20.4491C5.82233 20.1194 5.68774 19.8049 5.45255 19.5741C3.81808 17.9393 2.80025 15.7875 2.57247 13.4854C2.34469 11.1833 2.92104 8.87336 4.20334 6.9491C5.48564 5.02483 7.39455 3.60529 9.60484 2.93234C11.8151 2.25938 14.1901 2.37465 16.325 3.2585C18.4599 4.14234 20.2228 5.74009 21.3132 7.77952C22.4037 9.81895 22.7543 12.1739 22.3052 14.4431C21.8562 16.7123 20.6353 18.7555 18.8506 20.2244C17.0659 21.6933 14.8278 22.4972 12.5176 22.499Z" fill="black"/>
</svg>
