<svg width="15" height="17" viewBox="0 0 15 17" fill="none" xmlns="http://www.w3.org/2000/svg">
<path d="M7.5 0C5.51088 0 3.60322 0.716424 2.1967 1.99167C0.790176 3.26691 0 4.99651 0 6.79998C0 11.39 6.60938 16.5749 6.89063 16.7959C7.06044 16.9276 7.27654 17 7.5 17C7.72346 17 7.93956 16.9276 8.10938 16.7959C8.4375 16.5749 15 11.39 15 6.79998C15 4.99651 14.2098 3.26691 12.8033 1.99167C11.3968 0.716424 9.48912 0 7.5 0ZM7.5 15.0025C5.50312 13.3025 1.875 9.63897 1.875 6.79998C1.875 5.44738 2.46763 4.15018 3.52252 3.19375C4.57742 2.23731 6.00816 1.69999 7.5 1.69999C8.99184 1.69999 10.4226 2.23731 11.4775 3.19375C12.5324 4.15018 13.125 5.44738 13.125 6.79998C13.125 9.63897 9.49687 13.311 7.5 15.0025ZM7.5 3.39999C6.75832 3.39999 6.0333 3.59939 5.41661 3.97299C4.79993 4.34659 4.31928 4.87759 4.03545 5.49886C3.75162 6.12012 3.67736 6.80375 3.82205 7.46328C3.96675 8.12282 4.3239 8.72864 4.84835 9.20413C5.3728 9.67963 6.04098 10.0034 6.76841 10.1346C7.49584 10.2658 8.24984 10.1985 8.93506 9.94116C9.62029 9.68382 10.206 9.24804 10.618 8.68891C11.0301 8.12978 11.25 7.47243 11.25 6.79998C11.25 5.89824 10.8549 5.03344 10.1517 4.39582C9.44839 3.7582 8.49456 3.39999 7.5 3.39999ZM7.5 8.49997C7.12916 8.49997 6.76665 8.40027 6.45831 8.21347C6.14996 8.02667 5.90964 7.76117 5.76773 7.45054C5.62581 7.1399 5.58868 6.79809 5.66103 6.46833C5.73337 6.13856 5.91195 5.83565 6.17418 5.5979C6.4364 5.36015 6.77049 5.19824 7.13421 5.13265C7.49792 5.06705 7.87492 5.10072 8.21753 5.22939C8.56014 5.35806 8.85298 5.57595 9.05901 5.85551C9.26503 6.13507 9.375 6.46375 9.375 6.79998C9.375 7.25084 9.17746 7.68324 8.82582 8.00206C8.47419 8.32087 7.99728 8.49997 7.5 8.49997Z" fill="black"/>
</svg>
