<svg width="13" height="14" viewBox="0 0 13 14" fill="none" xmlns="http://www.w3.org/2000/svg">
<path d="M13 7C13 8.26997 12.7094 9.44119 12.1283 10.5137C11.5471 11.5862 10.7586 12.4353 9.7627 13.0612C8.76682 13.6871 7.67925 14 6.5 14C5.32075 14 4.23318 13.6871 3.2373 13.0612C2.24143 12.4353 1.45291 11.5862 0.871745 10.5137C0.290582 9.44119 0 8.26997 0 7C0 5.73003 0.290582 4.55881 0.871745 3.48633C1.45291 2.41385 2.24143 1.56467 3.2373 0.938802C4.23318 0.312934 5.32075 0 6.5 0C7.67925 0 8.76682 0.312934 9.7627 0.938802C10.7586 1.56467 11.5471 2.41385 12.1283 3.48633C12.7094 4.55881 13 5.73003 13 7Z" fill="#26B679"/>
</svg>
