<svg width="25" height="25" viewBox="0 0 25 25" fill="none" xmlns="http://www.w3.org/2000/svg">
<path fill-rule="evenodd" clip-rule="evenodd" d="M22.5 21.2613C22.5 21.95 21.8833 22.5 21.194 22.5H17.444C17.2874 22.5039 17.1317 22.4746 16.9861 22.4139C16.8405 22.3532 16.708 22.2623 16.5966 22.1467C16.4852 22.0311 16.3971 21.8932 16.3375 21.741C16.278 21.5889 16.2482 21.4257 16.25 21.2613V17.5112C16.2476 17.3456 16.2768 17.181 16.3359 17.0274C16.395 16.8737 16.4827 16.734 16.594 16.6165C16.7052 16.499 16.8377 16.406 16.9837 16.3431C17.1297 16.2801 17.2862 16.2485 17.444 16.25H21.194C21.8845 16.25 22.5 16.8225 22.5 17.5112V21.2613ZM21.194 13.75H17.444C15.3726 13.75 13.75 15.44 13.75 17.5112V21.2613C13.75 23.3325 15.3726 25 17.444 25H21.194C23.2655 25 25 23.3325 25 21.2613V17.5112C25 15.44 23.2655 13.75 21.194 13.75ZM8.75 21.2613C8.75 21.95 8.13333 22.5 7.44405 22.5H3.69405C3.53744 22.5039 3.3817 22.4746 3.2361 22.4139C3.09051 22.3532 2.95804 22.2623 2.84661 22.1467C2.73518 22.0311 2.64706 21.8932 2.58751 21.741C2.52796 21.5889 2.4982 21.4257 2.5 21.2613V17.5112C2.49761 17.3456 2.52681 17.181 2.58588 17.0274C2.64495 16.8737 2.7327 16.734 2.84396 16.6165C2.95522 16.499 3.08775 16.406 3.23374 16.3431C3.37973 16.2801 3.53624 16.2485 3.69405 16.25H7.44405C8.13452 16.25 8.75 16.8225 8.75 17.5112V21.2613ZM7.44405 13.75H3.69405C1.62262 13.75 0 15.44 0 17.5112V21.2613C0 23.3325 1.62262 25 3.69405 25H7.44405C9.51548 25 11.25 23.3325 11.25 21.2613V17.5112C11.25 15.44 9.51548 13.75 7.44405 13.75ZM22.5 7.51125C22.5 8.2 21.8833 8.75 21.194 8.75H17.444C17.2874 8.75387 17.1317 8.72459 16.9861 8.6639C16.8405 8.6032 16.708 8.51235 16.5966 8.39674C16.4852 8.28114 16.3971 8.14316 16.3375 7.99102C16.278 7.83889 16.2482 7.67572 16.25 7.51125V3.76125C16.2476 3.59556 16.2768 3.43104 16.3359 3.27738C16.395 3.12372 16.4827 2.98401 16.594 2.86649C16.7052 2.74897 16.8377 2.656 16.9837 2.59306C17.1297 2.53012 17.2862 2.49848 17.444 2.5H21.194C21.8845 2.5 22.5 3.0725 22.5 3.76125V7.51125ZM21.194 0H17.444C15.3726 0 13.75 1.69 13.75 3.76125V7.51125C13.75 9.5825 15.3726 11.25 17.444 11.25H21.194C23.2655 11.25 25 9.5825 25 7.51125V3.76125C25 1.69 23.2655 0 21.194 0ZM8.75 7.51125C8.75 8.2 8.13333 8.75 7.44405 8.75H3.69405C3.53744 8.75387 3.3817 8.72459 3.2361 8.6639C3.09051 8.6032 2.95804 8.51235 2.84661 8.39674C2.73518 8.28114 2.64706 8.14316 2.58751 7.99102C2.52796 7.83889 2.4982 7.67572 2.5 7.51125V3.76125C2.49761 3.59556 2.52681 3.43104 2.58588 3.27738C2.64495 3.12372 2.7327 2.98401 2.84396 2.86649C2.95522 2.74897 3.08775 2.656 3.23374 2.59306C3.37973 2.53012 3.53624 2.49848 3.69405 2.5H7.44405C8.13452 2.5 8.75 3.0725 8.75 3.76125V7.51125ZM7.44405 0H3.69405C1.62262 0 0 1.69 0 3.76125V7.51125C0 9.5825 1.62262 11.25 3.69405 11.25H7.44405C9.51548 11.25 11.25 9.5825 11.25 7.51125V3.76125C11.25 1.69 9.51548 0 7.44405 0Z" fill="black"/>
</svg>
