<svg width="13" height="11" viewBox="0 0 13 11" fill="none" xmlns="http://www.w3.org/2000/svg">
<path d="M13 5.5C13 8.53205 10.5413 11 7.51739 11C6.40109 11 5.32717 10.6615 4.4087 10.041C4.15435 9.85769 4.0837 9.51923 4.26739 9.25128C4.45109 8.99744 4.79022 8.92692 5.0587 9.11026C5.77935 9.60385 6.6413 9.8718 7.51739 9.8718C9.91957 9.8718 11.8696 7.91154 11.8696 5.5C11.8696 3.08846 9.91957 1.12821 7.51739 1.12821C5.17174 1.12821 3.25 3.00385 3.16522 5.34487L4.47935 4.01923C4.70543 3.79359 5.0587 3.79359 5.28478 4.01923C5.51087 4.24487 5.51087 4.59744 5.28478 4.82308L3.12283 6.98077C3.00978 7.09359 2.86848 7.15 2.72717 7.15C2.57174 7.15 2.43043 7.09359 2.33152 6.98077L0.169565 4.80897C-0.0565217 4.58333 -0.0565217 4.23077 0.169565 4.00513C0.395652 3.77949 0.748913 3.77949 0.975 4.00513L2.04891 5.09103C2.24674 2.25641 4.62065 0 7.51739 0C10.5413 0 13 2.46795 13 5.5ZM7.48913 2.29872C7.17826 2.29872 6.92391 2.55256 6.92391 2.86282V5.5C6.92391 5.65513 6.99457 5.79615 7.10761 5.89487L8.32283 7.10769C8.43587 7.22051 8.57717 7.27692 8.73261 7.27692C8.87391 7.27692 9.02935 7.22051 9.12826 7.10769C9.35435 6.88205 9.34022 6.52949 9.11413 6.30385L8.05435 5.26026V2.86282C8.05435 2.55256 7.8 2.29872 7.48913 2.29872Z" fill="#2F2F2F" fill-opacity="0.6"/>
</svg>
