<svg width="20" height="24" viewBox="0 0 20 24" fill="none" xmlns="http://www.w3.org/2000/svg">
<path d="M10 0C7.34784 0 4.8043 1.01142 2.92893 2.81177C1.05357 4.61211 0 7.0539 0 9.59997C0 16.0799 8.8125 23.3999 9.1875 23.7119C9.41392 23.8978 9.70206 24 10 24C10.2979 24 10.5861 23.8978 10.8125 23.7119C11.25 23.3999 20 16.0799 20 9.59997C20 7.0539 18.9464 4.61211 17.0711 2.81177C15.1957 1.01142 12.6522 0 10 0ZM10 21.1799C7.3375 18.7799 2.5 13.608 2.5 9.59997C2.5 7.69042 3.29018 5.85907 4.6967 4.50882C6.10322 3.15856 8.01088 2.39999 10 2.39999C11.9891 2.39999 13.8968 3.15856 15.3033 4.50882C16.7098 5.85907 17.5 7.69042 17.5 9.59997C17.5 13.608 12.6625 18.7919 10 21.1799ZM10 4.79998C9.01109 4.79998 8.0444 5.0815 7.22215 5.60893C6.3999 6.13636 5.75904 6.88601 5.3806 7.76309C5.00216 8.64018 4.90315 9.60529 5.09607 10.5364C5.289 11.4675 5.7652 12.3228 6.46447 12.9941C7.16373 13.6654 8.05464 14.1225 9.02455 14.3077C9.99445 14.4929 10.9998 14.3979 11.9134 14.0346C12.827 13.6713 13.6079 13.0561 14.1573 12.2667C14.7068 11.4773 15 10.5493 15 9.59997C15 8.32693 14.4732 7.10604 13.5355 6.20587C12.5979 5.3057 11.3261 4.79998 10 4.79998ZM10 12C9.50555 12 9.0222 11.8592 8.61107 11.5955C8.19995 11.3318 7.87952 10.9569 7.6903 10.5184C7.50108 10.0799 7.45157 9.59731 7.54804 9.13175C7.6445 8.6662 7.8826 8.23856 8.23223 7.90292C8.58186 7.56727 9.02732 7.3387 9.51227 7.24609C9.99723 7.15349 10.4999 7.20102 10.9567 7.38267C11.4135 7.56431 11.804 7.87193 12.0787 8.26661C12.3534 8.66128 12.5 9.1253 12.5 9.59997C12.5 10.2365 12.2366 10.8469 11.7678 11.297C11.2989 11.7471 10.663 12 10 12Z" fill="#17716C"/>
</svg>
