<svg width="26" height="26" viewBox="0 0 26 26" fill="none" xmlns="http://www.w3.org/2000/svg">
<path d="M13 0C5.826 0 0 5.826 0 13C0 20.174 5.826 26 13 26C20.174 26 26 20.174 26 13C26 5.826 20.174 0 13 0ZM13 1.002C19.633 1.002 25 6.367 25 13C25 19.633 19.633 25 13 25C6.367 25 1 19.633 1 13C1 6.367 6.367 1.002 13 1.002ZM15.213 4.775C15.213 4.775 14.566 5.024 13.91 5.485C13.46 5.8 12.97 6.235 12.703 6.805C12.5829 6.41874 12.374 6.06599 12.093 5.775C11.7495 5.43507 11.3197 5.19544 10.85 5.082C10.3409 4.96073 9.80855 4.97904 9.309 5.135L9.049 5.213L8.973 5.473C8.665 6.524 8.975 7.556 9.643 8.221C9.823 8.401 10.033 8.546 10.26 8.668C9.27948 9.17182 8.45659 9.93587 7.88156 10.8764C7.30652 11.8169 7.00152 12.8976 7 14C7 17.308 9.692 20 13 20C16.308 20 19 17.308 19 14C19 10.86 16.575 8.279 13.5 8.023V7.672C13.5 7.187 13.943 6.682 14.484 6.302C15.025 5.922 15.574 5.707 15.574 5.707L15.213 4.775Z" fill="black"/>
</svg>
