<svg width="40" height="30" viewBox="0 0 40 30" fill="none" xmlns="http://www.w3.org/2000/svg">
<path d="M39.913 6.76348L35.2609 20.7469C34.913 21.7427 34 22.4066 32.913 22.4066H14.9565C13.913 22.4066 12.913 21.7842 12.5652 20.8714L5.69565 3.3195H1.73913C0.782609 3.3195 0 2.57261 0 1.65975C0 0.746888 0.782609 0 1.73913 0H6.91304C7.65217 0 8.30435 0.456431 8.56522 1.12033L15.6522 19.0871H32.1739L35.8696 7.88382H15.3913C14.4348 7.88382 13.6522 7.13693 13.6522 6.22407C13.6522 5.3112 14.4348 4.56431 15.3913 4.56431H38.2609C38.8261 4.56431 39.3478 4.85477 39.6522 5.26971C40 5.68465 40.087 6.26556 39.913 6.76348ZM15.8261 24.6058C15.087 24.6058 14.3478 24.8963 13.8261 25.3942C13.3043 25.8921 13 26.5975 13 27.3029C13 28.0083 13.3043 28.7137 13.8261 29.2116C14.3478 29.7095 15.087 30 15.8261 30C16.5652 30 17.3043 29.7095 17.8261 29.2116C18.3478 28.7137 18.6522 28.0083 18.6522 27.3029C18.6522 26.5975 18.3478 25.8921 17.8261 25.3942C17.3043 24.8963 16.5652 24.6058 15.8261 24.6058ZM31.4348 24.6058C30.6957 24.6058 29.9565 24.8963 29.4348 25.3942C28.913 25.8921 28.6087 26.5975 28.6087 27.3029C28.6087 28.0083 28.913 28.7137 29.4348 29.2116C29.9565 29.7095 30.6957 30 31.4348 30C32.1739 30 32.913 29.7095 33.4348 29.2116C33.9565 28.7137 34.2609 28.0083 34.2609 27.3029C34.2609 26.5975 33.9565 25.8921 33.4348 25.3942C32.913 24.8963 32.1739 24.6058 31.4348 24.6058Z" fill="black"/>
</svg>
