<svg width="32" height="27" viewBox="0 0 32 27" fill="none" xmlns="http://www.w3.org/2000/svg">
<path d="M11.5114 24.4643V20.6308C11.5114 19.6558 12.5154 18.8635 13.7595 18.857H18.3165C19.5664 18.857 20.5797 19.6512 20.5797 20.6308V24.4762C20.5795 25.304 21.4225 25.9806 22.4785 26H25.5165C28.5449 26 31 24.0758 31 21.7023V10.7973C30.9838 9.86353 30.4244 8.98669 29.481 8.41629L19.0911 1.85663C17.271 0.714458 14.6835 0.714458 12.8633 1.85663L2.51899 8.4282C1.57199 8.99628 1.01166 9.87458 1 10.8092V21.7023C1 24.0758 3.45507 26 6.48354 26H9.52152C10.6037 26 11.481 25.3124 11.481 24.4643" stroke="black" stroke-width="1.5" stroke-linecap="round" stroke-linejoin="round"/>
</svg>
