<svg width="22" height="30" viewBox="0 0 22 30" fill="none" xmlns="http://www.w3.org/2000/svg">
<path d="M16.787 6C16.787 2.691 14.096 0 10.787 0C7.478 0 4.787 2.691 4.787 6C4.787 9.309 7.478 12 10.787 12C14.096 12 16.787 9.309 16.787 6ZM6.787 6C6.787 3.794 8.581 2 10.787 2C12.993 2 14.787 3.794 14.787 6C14.787 8.206 12.993 10 10.787 10C8.581 10 6.787 8.206 6.787 6ZM0 24.137V27C0 28.654 1.346 30 3 30H18.574C20.228 30 21.574 28.654 21.574 27V24.137C21.574 18.188 16.735 13.35 10.787 13.35C4.839 13.35 0 18.188 0 24.137ZM10.787 15.35C15.633 15.35 19.574 19.291 19.574 24.137V27C19.574 27.551 19.126 28 18.574 28H3C2.448 28 2 27.551 2 27V24.137C2 19.291 5.941 15.35 10.787 15.35Z" fill="#26B679"/>
</svg>
