<svg width="18" height="20" viewBox="0 0 18 20" fill="none" xmlns="http://www.w3.org/2000/svg">
<path d="M9 0C6.61305 0 4.32387 0.842852 2.63604 2.34314C0.948212 3.84342 0 5.87825 0 7.99997C0 13.4 7.93125 19.4999 8.26875 19.7599C8.47252 19.9149 8.73185 20 9 20C9.26815 20 9.52748 19.9149 9.73125 19.7599C10.125 19.4999 18 13.4 18 7.99997C18 5.87825 17.0518 3.84342 15.364 2.34314C13.6761 0.842852 11.3869 0 9 0ZM9 17.6499C6.60375 15.6499 2.25 11.34 2.25 7.99997C2.25 6.40868 2.96116 4.88256 4.22703 3.75735C5.4929 2.63213 7.20979 1.99999 9 1.99999C10.7902 1.99999 12.5071 2.63213 13.773 3.75735C15.0388 4.88256 15.75 6.40868 15.75 7.99997C15.75 11.34 11.3962 15.6599 9 17.6499ZM9 3.99999C8.10998 3.99999 7.23996 4.23458 6.49993 4.67411C5.75991 5.11363 5.18314 5.73834 4.84254 6.46924C4.50195 7.20015 4.41283 8.00441 4.58647 8.78033C4.7601 9.55625 5.18868 10.269 5.81802 10.8284C6.44736 11.3878 7.24918 11.7688 8.12209 11.9231C8.99501 12.0774 9.89981 11.9982 10.7221 11.6955C11.5443 11.3927 12.2471 10.88 12.7416 10.2222C13.2361 9.56445 13.5 8.7911 13.5 7.99997C13.5 6.93911 13.0259 5.9217 12.182 5.17156C11.3381 4.42141 10.1935 3.99999 9 3.99999ZM9 9.99997C8.55499 9.99997 8.11998 9.88267 7.74997 9.66291C7.37996 9.44315 7.09157 9.13079 6.92127 8.76534C6.75097 8.39989 6.70642 7.99776 6.79323 7.6098C6.88005 7.22183 7.09434 6.86547 7.40901 6.58577C7.72368 6.30606 8.12459 6.11558 8.56105 6.03841C8.9975 5.96124 9.4499 6.00085 9.86104 6.15222C10.2722 6.3036 10.6236 6.55994 10.8708 6.88884C11.118 7.21773 11.25 7.60441 11.25 7.99997C11.25 8.53041 11.0129 9.03911 10.591 9.41418C10.169 9.78925 9.59674 9.99997 9 9.99997Z" fill="#26B679"/>
</svg>
